<svg xmlns="http://www.w3.org/2000/svg" xmlns:svg="http://www.w3.org/2000/svg" xmlns:xlink="http://www.w3.org/1999/xlink" id="svg2" x="0" y="0" version="1.1" viewBox="0 0 230 231.2" xml:space="preserve" style="enable-background:new 0 0 230 231.2"><style type="text/css">.st0{fill:#6bab5b;stroke:#3b972f}.st0,.st1,.st2{stroke-width:5;stroke-linecap:round;stroke-linejoin:round}.st1{fill:#d66661;stroke:#c93d39}.st2{fill:#aa7dc0;stroke:#945bb0}</style><g id="layer1" transform="translate(-177.45675,-547.25472)"><g id="g3363" transform="matrix(1.25,0,0,-1.25,-32.675374,1082.4742)"><g id="g3365"><path id="path4263" d="M299.6,249.2c10.8,4.7,22.6,9.1,31.2,17.5 c7.7,7.6,12.7,17.9,14.1,28.6c2,15.7-3.5,31.9-13.3,44.3s-23.8,21.2-38.8,26.2s-31,6.6-46.8,6.3c-4.2-0.1-8.5-0.3-12.7,0.7 c-4.1,1-8.1,3.5-9.8,7.4c-1.5,3.4-1,7.3,0,10.8c4.3,14.9,19.1,26.1,34.5,26.1c11.6,0,22.7-5.7,31.5-13.3 c8.8-7.6,15.7-17.1,22.8-26.3c9.2-12,18.9-23.7,26.3-36.9c7.4-13.2,12.4-28.2,11.3-43.3c-0.8-12.1-6-24.3-15.2-32.4 C324.4,255.7,313.1,251.7,299.6,249.2" class="st0"/><path id="path4259" d="M297,405.2c-7.2,5.7-15.1,10.8-23.8,13.9 c-14.8,5.3-31.4,2-43.4-8.1c-10.8-9.1-17.4-22.5-20.3-36.4c-5.5-27,2.5-55.4,16.2-79.3c2.5-4.4,5.2-8.7,6.7-13.5 s1.5-10.3-1.2-14.6c-2.5-4.1-7.2-6.4-11.9-7.3c-9.4-1.7-19.3,2.1-26.1,8.8c-6.8,6.7-10.8,15.9-12.2,25.3 c-1.5,9.4-0.6,19.1,1.1,28.5c3.2,17.5,9.7,34.3,17.1,50.4c6.7,14.6,14.3,29.5,26.3,40.5c10.4,9.6,24.2,14.3,38.3,12.3 C277.3,423.7,288.2,415.2,297,405.2" class="st1"/><path id="path4255" d="M336.4,318.2c-0.7,1.5-1.5,3-2.4,4.5 c-3.3,5.2-8.9,10-15,8.8c-5.5-1.1-8.7-6.6-11.3-11.5c-7.9-14.7-16.6-29.1-28.1-41.2s-25.9-21.8-42.2-25.3 c-15.4-3.3-32.3,0.4-44.7,10.3c-17.9,14.3-21.2,39.3-16,60.4c-15.6-30-2-59.3,23-72.3c23.8-12.4,52.1-4.5,76.9-0.4 c7.3,1.2,14.6,2.4,21.7,4.4c13.7,3.8,27.2,10.7,35,22.5C341.1,289.9,342.2,305.6,336.4,318.2z" class="st2"/></g></g></g></svg>